<?xml version="1.0" standalone="no"?>
<!DOCTYPE svg PUBLIC "-//W3C//DTD SVG 20010904//EN"
 "http://www.w3.org/TR/2001/REC-SVG-20010904/DTD/svg10.dtd">
<svg version="1.0" xmlns="http://www.w3.org/2000/svg"
 width="1080.000000pt" height="1080.000000pt" viewBox="0 0 1080.000000 1080.000000"
 preserveAspectRatio="xMidYMid meet">
<metadata>
Created by potrace 1.14, written by Peter Selinger 2001-2017
</metadata>
<g transform="translate(0.000000,1080.000000) scale(0.100000,-0.100000)"
fill="#000000" stroke="none">
<path d="M0 5400 l0 -5400 1868 1 c1027 0 1863 2 1857 4 -5 3 -42 13 -82 24
-72 19 -72 19 -98 -1 -34 -27 -72 -18 -77 18 -3 24 -15 30 -158 81 -192 67
-201 70 -330 127 -345 152 -788 416 -994 591 -39 34 -111 93 -161 132 -241
191 -471 440 -765 829 -198 262 -430 692 -584 1084 -116 296 -154 414 -211
658 -14 57 -27 107 -29 111 -11 18 -73 383 -85 503 -7 66 -12 82 -40 113 -31
36 -32 44 -3 78 12 13 16 47 17 140 1 67 5 138 10 158 4 21 3 45 -3 56 -7 13
-6 23 2 36 11 14 14 -6 20 -121 4 -75 9 -151 12 -169 5 -28 8 -31 29 -23 13 5
32 6 44 3 27 -7 27 4 2 139 -21 115 -46 298 -62 463 -6 61 -13 126 -15 145 -2
19 -6 50 -8 67 -3 18 5 110 17 203 17 137 19 175 9 190 -17 28 -15 41 12 69
27 29 39 96 56 311 5 63 13 144 19 180 10 58 9 66 -9 85 -27 29 -25 46 9 79
19 19 32 43 36 70 9 58 102 443 119 491 8 22 35 106 61 188 45 138 47 149 31
165 -9 10 -16 24 -16 31 0 20 43 73 68 82 23 9 44 49 84 157 13 34 26 62 30
62 5 0 8 8 8 18 0 9 9 33 20 52 11 19 43 78 70 130 99 186 246 432 326 545 24
33 53 75 66 93 107 152 230 304 405 501 32 35 42 61 24 61 -5 0 -12 12 -16 27
-4 19 -1 32 14 47 19 18 24 19 56 7 33 -12 37 -11 73 17 20 17 53 47 72 67 86
91 351 316 520 441 95 71 395 274 404 274 3 0 36 20 73 44 37 24 186 101 330
172 190 94 263 134 263 146 0 27 38 43 66 28 19 -11 29 -10 56 3 50 24 265 93
333 107 33 7 83 18 110 25 60 16 232 50 330 64 39 6 113 18 166 26 89 14 159
12 159 -5 0 -4 -21 -10 -47 -13 -163 -19 -507 -98 -738 -170 -214 -66 -707
-294 -1017 -469 -87 -49 -88 -50 -88 -88 0 -29 -6 -43 -22 -54 -25 -18 -75
-21 -97 -7 -16 11 -24 6 -161 -90 -110 -77 -296 -223 -358 -281 l-42 -40 30
-28 c42 -39 38 -76 -10 -108 -47 -31 -71 -25 -94 23 l-18 39 -187 -189 c-154
-156 -384 -424 -451 -525 -8 -12 -29 -41 -46 -64 -103 -139 -240 -366 -325
-536 -146 -295 -259 -550 -259 -586 0 -8 -6 -25 -14 -37 -17 -26 -116 -317
-116 -341 0 -28 18 -9 25 27 4 17 11 37 15 42 4 6 24 52 45 104 34 86 120 265
227 475 53 104 111 200 159 260 42 53 47 66 25 66 -8 0 -27 11 -42 23 l-27 24
21 35 c31 49 78 63 122 36 23 -15 46 3 93 72 17 25 39 51 48 58 27 19 38 31
108 121 35 45 66 80 68 77 7 -7 -15 -44 -65 -107 l-45 -59 26 -21 c43 -33 31
-89 -18 -89 -12 0 -30 9 -40 20 -17 19 -20 15 -125 -143 -59 -89 -135 -218
-169 -287 -34 -69 -73 -147 -88 -175 -209 -401 -342 -708 -328 -762 4 -16 -1
-29 -15 -40 -23 -20 -89 -219 -140 -423 -51 -203 -51 -205 -22 -231 24 -21 24
-22 7 -35 -10 -7 -22 -15 -27 -16 -20 -7 -28 -174 -24 -501 5 -360 9 -405 35
-415 52 -19 63 -76 25 -121 -26 -31 -27 -36 -20 -109 5 -58 11 -81 28 -99 19
-20 20 -26 9 -47 -11 -20 -9 -45 14 -162 76 -389 181 -739 318 -1059 146 -341
227 -494 420 -798 l50 -79 24 26 c30 33 76 35 97 5 23 -34 -8 -89 -51 -89 -30
0 -29 -12 5 -52 15 -18 54 -69 87 -113 84 -113 284 -352 334 -400 23 -22 92
-91 154 -154 62 -62 159 -155 216 -206 l104 -93 35 18 c31 17 38 18 63 5 34
-18 44 -48 29 -86 -11 -26 -10 -31 11 -49 19 -15 33 -19 62 -14 48 8 82 -17
66 -47 -5 -11 -7 -23 -4 -28 6 -11 151 -111 160 -111 3 0 29 -17 58 -38 89
-65 271 -167 297 -167 17 0 24 -5 23 -15 -3 -15 34 -38 169 -106 236 -119 556
-245 798 -316 58 -16 114 -34 125 -38 17 -6 183 -45 343 -81 23 -5 53 -9 67
-9 14 0 25 -5 25 -12 0 -6 3 -9 6 -5 4 3 21 0 38 -7 46 -19 112 -9 130 20 16
23 15 23 -22 29 -130 20 -273 50 -337 70 -22 7 -65 18 -95 25 -103 23 -476
147 -555 184 -16 8 -91 40 -165 71 -161 68 -361 172 -555 289 -321 194 -614
426 -932 740 -116 113 -123 119 -140 103 -28 -24 -96 -33 -112 -13 -17 20 -1
70 30 95 l22 18 -33 41 c-18 23 -41 42 -49 42 -30 0 -61 30 -61 58 0 18 -19
48 -56 92 -31 36 -83 105 -116 153 -34 49 -76 100 -95 114 -18 14 -33 34 -33
45 0 11 -46 95 -103 186 -149 240 -289 516 -387 762 -12 30 -27 69 -34 85 -15
34 -106 321 -130 406 -15 54 -17 57 -55 62 -51 6 -95 28 -99 48 -4 22 43 75
73 83 30 8 30 8 6 104 -46 180 -94 537 -107 802 l-6 116 -34 23 c-59 41 -54
79 13 108 25 10 33 20 33 38 0 43 15 28 33 -32 12 -39 15 -73 11 -104 -7 -51
7 -220 37 -430 25 -181 38 -239 54 -239 7 0 18 -7 25 -15 10 -13 10 -19 -4
-33 -9 -10 -16 -31 -16 -45 0 -30 76 -335 111 -442 103 -323 151 -460 210
-595 11 -25 24 -54 29 -65 50 -117 216 -442 235 -461 14 -14 25 -31 25 -39 0
-22 43 -95 158 -270 106 -162 218 -315 229 -315 3 0 11 7 18 17 7 9 17 13 23
9 18 -11 14 -26 -8 -34 -18 -7 -13 -16 54 -102 40 -52 123 -150 184 -217 84
-91 119 -122 139 -125 22 -2 28 -8 26 -24 -2 -15 20 -42 70 -90 176 -169 554
-464 596 -464 6 0 11 6 11 13 0 22 47 60 74 60 36 -1 56 -20 56 -57 0 -38 -8
-51 -38 -60 -34 -11 -17 -26 110 -102 264 -156 563 -298 813 -384 l140 -48 27
29 c15 16 35 29 46 29 30 0 54 -34 50 -70 -3 -36 -17 -31 185 -76 72 -16 78
-16 95 -1 29 26 59 21 77 -12 17 -33 29 -37 267 -77 282 -47 557 -67 833 -59
116 3 224 8 240 10 17 3 47 7 67 9 20 2 50 14 66 26 24 18 37 21 59 15 71 -20
267 4 256 31 -8 22 5 61 23 68 23 9 64 -20 64 -45 0 -19 4 -20 43 -14 44 7
177 41 283 72 51 15 59 20 48 31 -19 17 -18 51 1 59 19 7 49 -28 33 -38 -6 -4
-9 -12 -7 -17 4 -10 175 39 244 69 11 4 58 22 105 39 75 28 129 50 260 107 68
30 256 123 345 171 122 66 185 107 202 132 8 11 23 20 33 20 18 0 151 86 158
102 2 4 8 8 14 8 20 0 78 53 78 72 0 10 -4 16 -10 13 -7 -4 -7 3 0 19 7 19 6
26 -3 27 -6 0 -3 4 8 9 l20 9 -20 0 c-17 1 -17 3 -5 11 13 8 12 10 -3 10 -9 0
-16 3 -15 8 3 15 -15 42 -28 42 -18 0 -18 11 0 36 29 39 -6 48 -76 19 -13 -5
-18 -2 -18 8 0 8 6 17 13 20 9 3 9 9 1 23 -13 22 -85 44 -163 49 -30 3 -57 8
-60 13 -12 17 -174 44 -202 34 -20 -8 -32 -6 -55 9 -16 10 -37 19 -47 19 -17
0 -17 -1 -3 -16 20 -19 21 -31 1 -14 -8 6 -23 9 -35 5 -14 -5 -20 -2 -20 10 0
14 -2 14 -14 2 -15 -14 -80 -12 -71 3 3 5 1 11 -5 15 -5 3 -10 2 -10 -3 0 -14
-71 -4 -89 12 -10 9 -26 13 -39 9 -12 -3 -22 -1 -22 3 0 5 -20 8 -45 6 -37 -3
-45 -1 -45 13 0 11 -5 15 -15 11 -8 -3 -22 -9 -30 -12 -9 -4 -17 1 -21 10 -3
9 -10 13 -16 10 -5 -3 -12 3 -15 15 -3 12 -20 28 -38 37 -18 8 -37 26 -44 40
-7 16 -17 24 -26 20 -18 -6 -26 5 -30 47 -2 18 -11 73 -20 122 -8 50 -15 117
-14 150 0 33 1 286 0 562 -1 360 2 510 11 530 14 35 17 92 5 117 -6 13 -5 21
4 27 12 7 11 11 -1 19 -10 6 -11 10 -2 10 6 0 12 7 12 15 0 8 -6 15 -14 15
-17 0 -26 22 -26 66 0 29 -4 34 -22 34 -13 0 -30 5 -38 10 -13 8 -12 11 6 16
24 6 34 44 34 131 0 47 3 53 28 65 25 12 28 19 36 96 5 45 13 82 17 82 5 0 9
24 9 53 0 28 4 67 9 85 6 20 6 32 0 32 -5 0 -9 5 -9 11 0 6 9 8 20 4 11 -3 20
-2 20 3 0 6 -6 12 -12 14 -7 3 -13 13 -13 24 0 11 -6 18 -13 16 -8 -1 -12 3
-10 10 6 16 -20 37 -44 38 -15 0 -18 9 -18 55 0 38 4 53 13 51 6 -1 9 -1 5 1
-5 3 -8 11 -8 19 0 9 4 13 9 10 16 -10 22 102 19 311 -2 111 0 204 3 208 4 3
17 7 29 8 20 1 21 5 13 52 -11 72 -10 364 2 368 17 6 9 915 -8 967 -3 8 -8 32
-12 52 -5 31 -3 37 10 32 12 -5 15 2 13 42 -1 44 -2 45 -5 12 -2 -21 -9 -38
-15 -38 -5 0 -8 7 -4 15 3 8 1 15 -4 15 -6 0 -10 -7 -10 -15 0 -8 -4 -15 -9
-15 -5 0 -11 -7 -13 -15 -2 -9 -48 -66 -103 -128 -226 -256 -474 -415 -781
-501 -260 -73 -587 -77 -824 -10 -213 60 -440 171 -580 283 -168 135 -242 212
-365 381 -143 195 -252 465 -301 741 -23 128 -23 410 0 539 88 501 357 897
786 1157 198 120 511 203 764 203 457 0 924 -214 1224 -560 231 -268 359 -536
429 -905 13 -69 17 -146 18 -332 0 -133 3 -233 7 -222 4 10 10 19 13 19 4 0 3
-4 0 -10 -3 -5 -1 -18 4 -27 9 -15 11 -12 12 17 1 19 3 27 6 17 2 -9 8 -15 13
-12 5 3 11 1 15 -5 3 -5 17 -10 29 -10 13 0 29 -6 35 -14 6 -7 22 -11 35 -9
13 3 27 0 30 -6 4 -6 22 -11 40 -11 49 0 96 -19 89 -36 -3 -9 2 -14 18 -15 37
-1 50 -5 109 -32 49 -23 148 -49 168 -45 15 3 63 -22 68 -37 8 -19 84 -76 94
-70 5 3 10 -2 14 -10 3 -8 15 -15 26 -15 16 0 19 -5 16 -25 -4 -19 0 -25 13
-25 9 0 27 -13 39 -30 13 -16 29 -30 38 -30 8 0 12 -5 9 -10 -3 -6 2 -14 12
-18 20 -8 27 -25 25 -63 -1 -19 6 -29 24 -37 19 -10 24 -9 24 3 0 8 5 15 11
15 7 0 8 -11 4 -30 -4 -20 -3 -30 5 -30 9 0 9 -4 0 -15 -11 -13 -9 -19 7 -38
16 -17 19 -28 12 -44 -4 -13 -15 -23 -24 -23 -20 0 -19 -10 3 -26 16 -13 16
-13 -1 -14 -10 0 -33 -11 -50 -24 -29 -21 -67 -33 -120 -39 -10 -1 -15 -7 -13
-14 7 -17 -31 -36 -60 -30 -13 2 -25 -1 -28 -8 -2 -7 -27 -16 -55 -20 -28 -4
-51 -11 -51 -16 0 -5 -7 -9 -15 -9 -8 0 -15 -4 -15 -10 0 -5 -8 -10 -17 -11
-11 0 -13 -3 -5 -6 24 -9 12 -21 -29 -28 -29 -5 -38 -10 -28 -16 13 -8 8 -11
-17 -8 -3 0 -14 -11 -25 -25 -11 -15 -27 -26 -35 -26 -8 0 -14 -5 -14 -10 0
-18 -53 -70 -72 -70 -12 0 -18 -7 -18 -21 0 -33 -18 -59 -37 -52 -14 5 -15 1
-10 -25 7 -33 -11 -62 -39 -62 -8 0 -14 -4 -14 -10 0 -5 7 -10 15 -10 8 0 15
-4 15 -10 0 -5 -6 -7 -12 -5 -10 4 -13 -15 -11 -80 1 -47 5 -89 8 -95 3 -5 3
-15 0 -21 -4 -5 0 -18 9 -28 9 -10 16 -23 14 -28 -5 -16 45 -113 59 -113 7 0
13 -5 13 -11 0 -6 6 -17 14 -25 8 -7 12 -23 9 -34 -4 -14 1 -22 18 -29 14 -6
17 -10 9 -11 -11 0 -10 -4 4 -12 15 -8 21 -8 24 0 6 20 22 3 22 -24 0 -13 6
-24 13 -24 20 0 47 -38 40 -57 -3 -10 -3 -15 2 -11 12 11 35 -11 35 -34 0 -11
7 -41 16 -69 9 -27 14 -60 12 -74 -3 -13 -1 -22 3 -19 5 3 9 41 9 85 l0 80
133 -3 132 -3 3 -92 3 -92 82 -3 82 -3 0 -85 0 -85 -82 -3 -83 -3 0 -160 0
-159 26 -10 c14 -6 40 -10 57 -10 18 0 37 -4 43 -8 16 -11 37 -152 24 -167
-30 -36 -232 -46 -303 -16 -84 36 -112 100 -108 246 2 44 0 124 -4 178 l-7 97
-47 0 c-45 0 -48 -2 -49 -27 -3 -77 -26 -249 -37 -275 -4 -9 -4 -21 -1 -27 3
-5 2 -11 -4 -13 -6 -2 -13 -35 -16 -73 -3 -39 -10 -82 -16 -98 -10 -25 -14
-27 -72 -27 -33 0 -56 -4 -50 -8 6 -4 11 -21 11 -39 0 -17 8 -39 18 -50 17
-16 17 -18 2 -21 -21 -4 -22 -31 -2 -38 8 -3 17 -14 20 -25 4 -11 11 -16 17
-13 6 4 8 2 5 -4 -8 -11 21 -73 39 -84 7 -4 15 -19 18 -33 4 -14 11 -23 16
-20 6 3 10 -1 10 -10 0 -9 -5 -13 -10 -10 -6 4 -5 -4 1 -19 9 -20 15 -23 25
-15 11 9 15 7 19 -5 3 -9 7 -23 10 -32 5 -14 9 -12 30 10 13 14 28 26 34 26 5
0 10 -26 10 -57 0 -47 3 -60 20 -72 12 -7 21 -20 21 -27 0 -31 18 -11 24 25 9
59 24 59 32 1 4 -28 13 -58 21 -66 11 -11 12 -14 1 -14 -11 0 -11 -2 0 -9 7
-4 12 -14 10 -22 -2 -8 7 -15 20 -17 13 -2 26 -10 29 -19 4 -11 8 -12 13 -3 6
9 14 6 29 -9 19 -19 38 -26 67 -22 7 1 14 -8 17 -19 3 -13 10 -18 21 -14 9 3
16 1 16 -5 0 -6 9 -11 21 -11 12 0 23 -8 26 -20 3 -11 9 -18 13 -15 5 3 11 1
14 -4 3 -5 15 -7 25 -4 10 3 31 -3 45 -12 19 -12 36 -15 62 -11 19 4 41 3 47
-2 33 -26 392 -51 452 -31 11 4 31 3 43 -2 32 -12 63 -51 51 -64 -5 -5 -9 -14
-9 -20 0 -5 6 -3 13 7 16 20 68 13 60 -8 -3 -9 2 -14 14 -14 10 0 39 -23 63
-51 34 -40 45 -61 47 -92 3 -47 10 -58 23 -37 8 12 10 10 10 -7 0 -15 -6 -23
-17 -23 -14 0 -13 -3 5 -16 12 -8 22 -24 22 -34 0 -10 6 -23 14 -27 14 -8 27
-81 15 -85 -4 -2 -2 -10 4 -19 11 -15 18 -10 60 42 26 33 47 64 47 69 0 6 5
10 10 10 13 0 13 -15 1 -38 -25 -46 -51 -110 -51 -125 0 -9 -3 -17 -7 -17 -13
0 -34 -53 -23 -60 10 -6 2 -50 -10 -50 -4 0 -11 -8 -15 -17 -3 -10 14 2 39 27
25 25 46 50 46 56 0 12 30 41 30 30 0 -4 -7 -18 -16 -31 -9 -13 -13 -29 -9
-34 4 -7 -1 -8 -12 -4 -16 6 -16 5 -4 -11 13 -15 12 -22 -5 -54 -10 -20 -25
-43 -32 -51 -10 -10 -10 -17 -2 -25 13 -13 30 8 30 40 0 12 7 25 16 28 23 9
28 1 15 -22 -14 -27 -14 -32 3 -32 8 0 17 7 20 16 3 8 10 13 15 10 5 -4 13 8
16 26 4 17 14 38 22 46 8 8 12 21 9 28 -3 8 0 11 9 8 12 -5 11 -11 -3 -40 -14
-31 -14 -37 -2 -46 12 -8 12 -9 -3 -4 -11 4 -20 0 -24 -11 -4 -10 -13 -24 -20
-33 -7 -8 -13 -19 -14 -25 0 -5 -12 -25 -26 -43 -14 -18 -22 -36 -18 -40 4 -4
10 -1 12 6 8 22 23 12 23 -15 0 -21 -3 -24 -10 -13 -5 8 -11 12 -14 9 -7 -6 4
-49 13 -49 6 0 40 52 53 83 4 9 12 17 18 17 5 0 10 9 10 21 0 11 5 17 10 14 6
-3 10 0 10 8 0 8 7 20 15 27 8 7 15 24 15 39 0 20 2 23 10 11 8 -12 10 -11 10
7 0 12 -4 25 -10 28 -5 3 -10 16 -10 28 0 17 -2 19 -9 8 -6 -10 -11 -5 -16 18
-4 18 -9 30 -12 27 -3 -3 -16 14 -29 39 -28 51 -33 108 -9 99 8 -4 15 -2 15 4
0 6 18 13 40 17 58 10 108 -22 112 -73 4 -48 33 -57 43 -12 4 18 11 28 18 23
6 -4 8 0 4 10 -3 8 3 25 14 38 10 12 19 28 19 36 0 7 4 13 9 13 5 0 11 8 15
17 3 10 10 25 15 33 5 8 17 33 27 55 11 22 21 42 24 45 3 3 20 35 39 72 29 55
33 71 24 90 -15 34 1 68 32 68 17 0 25 5 25 18 0 10 4 22 9 27 20 22 171 454
171 490 0 8 -6 15 -14 15 -8 0 -27 11 -43 24 l-27 24 19 37 c24 43 29 47 74
55 39 6 35 -4 77 185 25 114 58 326 74 475 5 52 14 124 20 160 5 36 11 113 14
172 l4 107 -28 10 c-61 21 -63 92 -4 111 l34 12 -1 96 c-2 260 -40 679 -80
882 -10 50 -16 80 -51 235 -36 163 -114 433 -157 545 -17 44 -38 101 -47 127
-9 27 -24 66 -35 89 -10 22 -27 63 -38 90 -10 27 -47 106 -80 177 -55 114 -63
127 -87 127 -24 0 -25 2 -20 38 4 23 1 46 -7 62 -41 76 -87 156 -145 250 -74
119 -68 110 -191 286 -88 126 -94 132 -132 137 -76 10 -112 56 -74 94 14 14
14 18 -1 42 -109 167 -612 658 -814 794 -41 28 -77 53 -80 56 -9 11 -85 68
-125 94 -22 14 -83 55 -135 91 -52 37 -111 71 -131 76 -48 13 -89 47 -89 73 0
36 48 77 92 77 49 0 73 -33 64 -88 -5 -36 -3 -40 27 -55 45 -23 212 -131 272
-176 28 -20 77 -57 110 -82 33 -24 71 -54 85 -65 164 -138 274 -231 285 -238
9 -6 19 -4 30 8 24 24 56 16 75 -17 14 -26 14 -29 -7 -46 l-21 -18 111 -114
c62 -63 156 -164 211 -226 54 -62 113 -124 132 -138 19 -14 37 -38 40 -52 4
-15 33 -62 66 -105 367 -487 669 -1115 836 -1733 97 -362 172 -841 172 -1101
0 -52 2 -94 5 -94 3 0 17 7 30 16 18 12 35 14 61 10 l36 -7 -2 83 c-1 66 2
134 9 187 1 2 8 -2 16 -9 11 -9 15 -9 15 -1 0 6 -6 14 -14 17 -19 7 -16 74 3
74 9 0 11 7 6 23 -4 12 -9 47 -12 77 -3 30 -10 61 -16 69 -6 7 -12 20 -13 30
-2 9 -5 36 -9 61 -3 25 -10 68 -15 95 -5 28 -14 97 -20 155 -7 58 -18 128 -25
155 -8 28 -18 70 -24 95 -5 25 -19 81 -31 124 -19 72 -20 80 -6 95 15 14 16
13 16 -6 0 -12 4 -25 10 -28 14 -8 13 7 -3 44 -7 17 -17 28 -22 24 -4 -5 -5
-3 -2 3 4 7 9 42 11 78 3 50 1 66 -9 66 -8 0 -11 7 -8 20 3 11 1 20 -5 20 -5
0 -13 12 -17 28 -3 15 -20 55 -36 88 -16 34 -29 69 -29 78 0 19 -16 21 -23 4
-4 -10 -6 -10 -6 0 -1 6 -8 12 -16 12 -9 0 -12 6 -8 16 3 9 0 20 -8 24 -8 6
-13 28 -13 64 0 30 -3 53 -7 50 -4 -2 -5 6 -1 18 5 21 4 22 -13 8 -10 -8 -16
-9 -11 -3 10 18 -243 546 -302 629 -29 41 -102 165 -102 173 0 3 4 -1 10 -9 5
-8 12 -12 15 -8 6 6 -76 142 -137 228 -18 25 -55 77 -82 115 -54 76 -152 197
-208 259 -31 34 -37 36 -45 22 -8 -14 -17 -8 -65 41 -64 67 -178 176 -299 284
-128 116 -147 131 -154 119 -3 -5 -2 -10 3 -10 5 0 31 -22 58 -48 28 -27 57
-53 65 -58 8 -5 59 -56 114 -114 54 -58 100 -104 102 -102 3 2 13 -7 24 -20
22 -25 93 -103 174 -188 63 -67 205 -253 205 -269 0 -24 -20 -9 -67 50 -68 86
-185 226 -231 278 -29 33 -44 42 -59 37 -25 -8 -89 18 -101 41 -7 12 -5 24 5
40 15 23 13 26 -73 116 -49 50 -95 97 -104 103 -8 7 -40 36 -71 65 -31 30 -67
63 -80 73 -13 11 -43 37 -67 58 -30 27 -48 37 -62 33 -23 -7 -95 28 -104 51
-4 9 2 31 13 50 l20 34 -37 27 c-20 15 -39 30 -42 33 -3 3 -12 10 -22 15 -9 6
-47 31 -86 58 -71 48 -94 58 -72 32 19 -23 4 -45 -29 -45 -35 0 -61 31 -61 71
0 20 -6 28 -25 33 -14 4 -25 11 -25 16 0 6 -6 10 -13 10 -8 0 -33 14 -55 30
-23 17 -46 30 -52 30 -5 0 -10 4 -10 9 0 5 -10 13 -21 16 -12 4 -49 23 -82 42
-45 27 -56 38 -46 45 10 7 8 8 -7 3 -19 -5 -56 11 -154 64 -8 5 -36 18 -61 30
-26 12 -52 27 -58 35 -6 7 -38 24 -71 37 -37 14 -58 29 -56 36 3 7 -1 10 -9 7
-8 -3 -28 0 -44 7 -24 11 -28 17 -20 31 7 13 6 18 -3 18 -7 0 -19 10 -26 21
-12 18 -11 24 1 37 18 17 47 9 54 -16 2 -9 30 -29 61 -44 146 -69 166 -78 172
-78 6 0 128 -65 225 -120 22 -12 76 -43 120 -68 78 -44 155 -92 165 -102 3 -3
21 -14 40 -24 32 -17 139 -87 164 -107 6 -5 88 -66 181 -135 94 -70 193 -148
221 -173 27 -25 67 -57 87 -71 21 -14 123 -112 228 -217 104 -106 194 -193
199 -193 4 0 10 5 12 12 5 15 37 -19 152 -162 192 -238 375 -525 519 -815 58
-117 207 -427 207 -431 0 -11 72 -155 76 -151 9 9 -48 161 -76 202 -32 46 -32
54 3 93 23 25 87 31 105 9 38 -46 15 -117 -38 -117 -29 0 -42 -21 -21 -34 5
-3 12 -22 16 -42 3 -20 10 -44 15 -53 4 -9 16 -38 25 -66 9 -27 24 -65 32 -84
9 -21 13 -47 9 -70 -3 -24 -2 -31 4 -21 11 17 10 19 41 -95 20 -75 28 -110 78
-320 11 -44 31 -127 45 -185 63 -263 66 -276 98 -487 6 -40 14 -73 18 -73 13
0 29 -82 45 -229 11 -99 16 -239 16 -440 -1 -259 2 -300 16 -328 15 -28 15
-37 5 -67 -10 -28 -10 -39 -1 -55 10 -15 10 -42 1 -128 -23 -201 -31 -268 -42
-313 -6 -25 -24 -112 -40 -195 -17 -82 -37 -175 -46 -205 -8 -30 -26 -95 -39
-145 -40 -148 -148 -466 -194 -570 -27 -61 -41 -95 -57 -142 -10 -29 -22 -53
-25 -53 -4 0 -10 -18 -14 -40 -4 -22 -11 -42 -16 -46 -5 -3 -8 -22 -8 -42 l1
-37 8 30 c4 17 8 22 9 13 1 -14 10 -18 38 -18 23 0 48 -9 69 -25 18 -14 40
-25 48 -25 9 0 16 -3 16 -7 0 -5 14 -24 30 -43 24 -28 32 -32 39 -21 8 12 11
9 16 -12 4 -15 15 -32 24 -37 14 -8 14 -10 -4 -10 -20 -1 -20 -1 0 -9 11 -4
22 -19 26 -32 3 -13 12 -23 19 -21 10 2 11 0 3 -10 -15 -18 -26 -128 -13 -128
5 0 10 -9 10 -21 0 -13 -4 -18 -12 -13 -7 4 -5 -2 5 -13 17 -20 17 -21 0 -38
-9 -10 -18 -35 -19 -58 -1 -22 -8 -44 -16 -48 -10 -7 -10 -9 0 -9 17 0 15 -37
-3 -44 -21 -8 -19 -36 3 -37 13 0 14 -2 2 -6 -25 -10 -27 -19 -23 -121 5 -138
7 -147 20 -145 7 2 14 -19 18 -55 4 -31 13 -70 20 -87 7 -16 19 -52 26 -80 7
-27 18 -59 24 -70 16 -29 6 -318 -14 -367 -9 -23 -8 -28 5 -28 10 0 14 -7 12
-22 -2 -13 -7 -21 -12 -20 -9 4 -26 -16 -26 -30 0 -5 7 -8 15 -8 18 0 11 -45
-12 -71 -12 -14 -12 -17 2 -23 9 -3 13 -11 10 -17 -4 -6 -13 -8 -20 -5 -7 2
-15 -4 -18 -15 -3 -11 -14 -19 -29 -20 -17 -1 -18 -3 -5 -6 9 -2 17 -10 17
-17 0 -19 -30 -57 -41 -51 -5 4 -9 1 -9 -4 0 -6 7 -11 15 -11 8 0 15 -4 15 -9
0 -11 -72 -30 -125 -33 -22 -2 -39 -7 -38 -13 1 -6 -28 -10 -70 -9 -95 1 -107
3 -82 14 16 7 12 9 -20 10 -54 2 -130 23 -130 35 0 22 -18 35 -46 35 -19 0
-29 5 -29 15 0 8 7 15 15 15 8 0 15 5 15 10 0 6 -13 10 -30 10 -29 0 -42 14
-19 22 6 2 1 12 -10 22 -12 11 -21 14 -21 8 0 -7 -4 -12 -9 -12 -5 0 -10 33
-11 73 0 39 -1 80 -1 90 0 11 -7 17 -17 15 -23 -4 -30 59 -8 68 18 7 22 34 6
34 -7 0 -7 6 0 20 7 14 8 26 0 39 -5 11 -10 53 -11 93 0 40 -4 94 -8 120 -4
27 -4 48 1 48 4 0 8 -18 8 -40 0 -22 4 -40 9 -40 5 0 9 54 8 123 -1 67 0 176
1 242 1 97 -1 121 -13 128 -9 4 -13 13 -10 18 4 5 10 7 14 4 5 -2 13 6 19 19
9 21 8 24 -13 29 -14 2 -22 0 -19 -4 7 -13 -54 -11 -77 2 -17 9 -25 5 -49 -23
-17 -18 -30 -37 -30 -43 0 -5 -13 -26 -29 -45 -17 -19 -39 -46 -50 -60 -12
-14 -29 -35 -40 -48 -11 -13 -33 -40 -49 -60 -76 -93 -118 -143 -188 -222 -42
-47 -87 -108 -100 -137 -13 -28 -29 -53 -36 -55 -9 -3 -9 -11 1 -34 7 -19 10
-50 6 -82 -4 -33 -2 -52 5 -52 5 0 10 5 10 10 0 21 18 9 18 -12 1 -13 2 -34 4
-48 2 -19 -2 -25 -17 -25 -17 0 -20 -7 -20 -40 1 -22 -4 -43 -9 -47 -6 -4 -10
-19 -11 -34 0 -22 -6 -29 -28 -35 -16 -4 -36 -16 -45 -27 -9 -10 -25 -21 -35
-25 -9 -4 -16 -12 -15 -18 2 -7 -8 -15 -22 -19 -14 -4 -24 -12 -23 -18 2 -7
-7 -12 -20 -12 -12 0 -44 -3 -72 -6 -46 -6 -52 -4 -82 25 -43 41 -70 41 -64
-1 0 -3 -14 -10 -32 -14 -31 -7 -31 -8 -7 -14 17 -5 7 -7 -29 -7 -33 1 -46 4
-35 8 16 6 15 8 -7 8 -14 1 -38 12 -52 25 l-27 25 -29 -25 c-16 -13 -32 -24
-36 -24 -4 0 -50 -28 -104 -63 -53 -35 -114 -74 -136 -87 -22 -13 -92 -61
-157 -107 -82 -59 -118 -92 -123 -110 -10 -40 -44 -64 -83 -57 -26 4 -43 -1
-77 -23 -137 -89 -475 -269 -590 -315 -22 -9 -65 -27 -95 -41 -128 -59 -338
-138 -445 -167 -16 -4 -83 -24 -149 -45 -65 -20 -153 -45 -195 -56 -42 -11
-89 -24 -106 -29 -16 -4 1029 -8 2323 -9 l2352 -1 0 3054 c0 3019 0 3055 -19
3061 -29 9 -38 45 -16 61 10 8 22 11 26 8 5 -3 9 1034 9 2305 l0 2311 -1270 0
-1270 0 0 -40 c0 -30 -4 -40 -16 -40 -10 0 -14 -7 -12 -22 2 -19 10 -24 42
-26 23 -2 42 2 46 8 6 9 12 9 26 1 18 -10 18 -11 -3 -17 -14 -4 -23 -14 -23
-25 0 -17 -8 -19 -60 -19 -33 0 -60 -4 -60 -10 0 -6 27 -10 60 -10 33 0 60 -4
60 -9 0 -11 -154 -21 -158 -10 -2 5 -58 9 -125 9 -98 0 -124 -3 -139 -17 -17
-15 -20 -15 -41 5 -21 20 -63 30 -134 31 -12 1 -28 8 -36 16 -13 13 -19 13
-45 -1 -25 -12 -35 -12 -57 -2 -24 11 -25 13 -8 20 12 5 4 7 -22 5 -26 -1 -39
-6 -37 -14 1 -7 -5 -13 -13 -13 -8 0 -15 4 -15 9 0 5 -18 16 -40 25 -22 9 -39
22 -38 28 2 9 -20 15 -72 20 -83 7 -150 20 -170 33 -8 5 -69 10 -136 11 -109
2 -125 5 -143 23 -12 12 -29 22 -38 22 -66 4 -386 6 -375 2 35 -14 -3 -83 -46
-83 -30 0 -64 40 -59 68 4 22 4 22 -139 22 -137 0 -144 -1 -144 -20 0 -15 -7
-20 -24 -20 -16 0 -27 7 -31 20 -6 20 -15 20 -710 20 -615 0 -704 -2 -709 -15
-3 -8 -10 -15 -15 -15 -5 0 -16 7 -25 15 -13 13 -281 15 -2295 15 l-2281 0 0
-5400z m5680 5300 c24 -24 26 -65 5 -74 -20 -7 -19 -24 3 -29 9 -3 -10 -5 -43
-6 l-60 -1 26 18 c25 17 26 17 8 36 -24 24 -24 45 -1 62 24 19 39 17 62 -6z
m-1436 -57 c9 -34 -13 -58 -47 -49 -28 7 -40 30 -32 57 5 14 16 19 40 19 27 0
34 -4 39 -27z m2436 2 c19 -23 8 -50 -20 -47 -37 4 -46 19 -25 42 22 24 29 25
45 5z m-1453 -51 c-3 -3 -12 -4 -19 -1 -8 3 -5 6 6 6 11 1 17 -2 13 -5z m63
-15 c0 -5 -7 -9 -15 -9 -9 0 -12 6 -9 15 6 15 24 11 24 -6z m700 4 c8 -3 30
-7 47 -10 18 -2 52 -7 76 -12 32 -6 49 -4 62 6 27 19 40 16 71 -12 15 -14 32
-25 38 -26 65 -4 95 -27 32 -24 -34 1 -50 -3 -63 -17 -30 -33 -71 -22 -99 27
-8 15 -26 22 -70 27 -32 3 -75 11 -94 17 -19 6 -67 11 -107 11 -70 0 -103 6
-103 19 0 7 189 2 210 -6z m-640 -3 c0 -5 -7 -10 -15 -10 -8 0 -15 5 -15 10 0
6 7 10 15 10 8 0 15 -4 15 -10z m-2603 -26 c8 -21 -13 -42 -28 -27 -13 13 -5
43 11 43 6 0 13 -7 17 -16z m5593 -3 c0 -6 -4 -13 -10 -16 -5 -3 -10 1 -10 9
0 9 5 16 10 16 6 0 10 -4 10 -9z m-2323 -43 c31 -29 30 -73 -2 -94 -22 -14
-32 -15 -65 -5 -51 15 -66 42 -44 76 32 49 74 58 111 23z m503 -34 c47 -10 87
-22 90 -25 3 -4 16 -9 30 -12 14 -3 -2 -3 -35 -1 -33 3 -64 10 -69 15 -6 5
-21 9 -35 9 -33 1 -118 23 -128 34 -10 10 37 4 147 -20z m87 10 c-3 -3 -12 -4
-19 -1 -8 3 -5 6 6 6 11 1 17 -2 13 -5z m-2857 -33 c0 -23 -9 -31 -26 -24 -17
6 -18 40 -1 46 17 6 27 -1 27 -22z m2960 -41 c0 -5 -7 -7 -15 -4 -8 4 -15 8
-15 10 0 2 7 4 15 4 8 0 15 -4 15 -10z m177 -6 c-3 -3 -12 -4 -19 -1 -8 3 -5
6 6 6 11 1 17 -2 13 -5z m-112 -14 c3 -5 -1 -10 -10 -10 -9 0 -13 5 -10 10 3
6 8 10 10 10 2 0 7 -4 10 -10z m75 -16 c0 -3 -13 -3 -29 -2 -16 1 -28 5 -26 9
5 6 55 0 55 -7z m-2090 -44 c0 -10 -6 -20 -12 -23 -21 -7 -38 4 -38 23 0 10 6
20 13 23 20 7 37 -4 37 -23z m2133 23 c-7 -2 -21 -2 -30 0 -10 3 -4 5 12 5 17
0 24 -2 18 -5z m47 -13 c0 -5 -4 -10 -9 -10 -6 0 -13 5 -16 10 -3 6 1 10 9 10
9 0 16 -4 16 -10z m53 -17 c-7 -2 -19 -2 -25 0 -7 3 -2 5 12 5 14 0 19 -2 13
-5z m-401 -20 c38 -43 33 -98 -9 -114 -32 -12 -83 3 -109 32 -17 19 -17 21 1
52 10 18 23 35 29 39 20 14 73 8 88 -9z m455 1 c-3 -3 -12 -4 -19 -1 -8 3 -5
6 6 6 11 1 17 -2 13 -5z m-4209 -40 c26 -18 30 -65 7 -84 -15 -13 -77 -16 -94
-5 -18 11 -12 64 9 85 24 24 48 25 78 4z m5022 -77 c0 -23 -22 -37 -42 -26
-20 11 -24 45 -5 52 17 6 47 -11 47 -26z m-4145 -3 c8 -4 23 -20 31 -36 14
-27 14 -32 -1 -54 -20 -30 -81 -33 -116 -5 l-22 18 22 36 c12 20 32 38 44 40
12 2 23 5 24 6 1 0 9 -2 18 -5z m3042 -2 c17 -11 34 -59 27 -77 -15 -39 -89
-25 -100 19 -12 48 33 83 73 58z m617 -105 c12 -34 -1 -61 -33 -65 -30 -5 -61
25 -61 58 0 36 8 42 49 38 29 -2 38 -8 45 -31z m-3394 -27 c0 -13 -7 -20 -20
-20 -19 0 -27 20 -13 33 13 14 33 6 33 -13z m-435 -56 c24 -24 16 -68 -13 -72
-25 -4 -62 23 -62 44 0 17 28 44 45 44 7 0 21 -7 30 -16z m5019 -188 c-4 -9
-14 -16 -23 -14 -20 4 -27 38 -9 49 18 11 40 -13 32 -35z m-6584 -31 c17 -20
3 -54 -26 -61 -42 -11 -72 34 -42 64 16 16 53 15 68 -3z m205 -17 c27 -12 34
-45 13 -66 -32 -32 -100 7 -79 46 9 17 16 23 38 31 1 1 14 -4 28 -11z m5765
-38 c0 -24 -29 -38 -40 -20 -12 19 -1 40 21 40 12 0 19 -7 19 -20z m-490 -80
c43 -43 9 -106 -42 -79 -41 21 -50 56 -22 83 21 21 40 20 64 -4z m-4618 -57
c26 -24 23 -61 -7 -75 -21 -9 -28 -8 -45 7 -22 20 -26 55 -8 73 17 17 38 15
60 -5z m-1114 -41 c3 -16 -2 -22 -16 -22 -24 0 -35 23 -19 39 16 16 31 8 35
-17z m965 -107 c5 -16 18 -40 29 -52 40 -43 0 -96 -53 -69 -17 8 -25 22 -27
44 -2 17 -8 32 -13 32 -13 0 -30 47 -22 65 4 11 16 15 41 13 29 -2 37 -8 45
-33z m-449 -77 c16 -26 -16 -57 -38 -38 -17 13 -21 42 -9 54 11 11 35 3 47
-16z m6856 -79 c0 -20 -24 -26 -35 -9 -4 6 -4 17 -1 25 7 20 36 7 36 -16z
m-502 4 c5 -17 -26 -29 -40 -15 -6 6 -7 15 -3 22 9 14 37 9 43 -7z m-7200
-301 c3 -17 -2 -22 -17 -22 -14 0 -21 6 -21 18 0 38 33 41 38 4z m7096 -18
c19 -18 30 -58 23 -78 -3 -8 -17 -22 -30 -31 -28 -18 -67 -8 -104 27 -29 27
-29 30 3 67 29 35 81 42 108 15z m235 -158 c21 -25 10 -70 -17 -74 -27 -4 -62
23 -62 48 0 37 55 55 79 26z m-6529 -11 c16 -19 6 -45 -19 -45 -23 0 -35 28
-20 46 15 18 24 18 39 -1z m7064 -31 c10 -25 -1 -29 -14 -5 -6 12 -7 21 -1 21
5 0 12 -7 15 -16z m-8190 -113 c37 -40 -3 -87 -48 -58 -28 19 -34 45 -14 65
18 18 42 15 62 -7z m539 -3 c28 -22 31 -61 6 -91 -19 -25 -27 -28 -68 -25 -45
3 -46 4 -49 39 -6 67 62 114 111 77z m1032 -116 c0 -18 -20 -15 -23 4 -3 10 1
15 10 12 7 -3 13 -10 13 -16z m6802 -61 c-1 -4 23 -40 54 -81 31 -41 64 -88
74 -105 10 -16 30 -42 44 -57 13 -16 21 -28 16 -28 -4 0 0 -9 10 -20 14 -15
15 -20 4 -20 -10 -1 -9 -4 4 -11 9 -5 17 -15 17 -21 0 -6 11 -26 25 -44 14
-18 25 -37 25 -42 0 -5 11 -21 25 -36 14 -15 25 -38 25 -51 0 -13 6 -28 13
-32 12 -7 27 -31 59 -95 13 -27 -7 -22 -26 6 -10 16 -27 26 -48 28 -23 2 -37
11 -47 29 -14 26 -12 39 11 70 9 14 8 20 -6 34 -10 10 -28 42 -41 71 -22 49
-29 61 -61 97 -26 30 -108 145 -125 177 -11 19 -35 57 -54 84 -40 55 -47 84
-16 64 11 -7 19 -14 18 -17z m-533 -90 c10 -11 16 -31 14 -48 -2 -22 -9 -29
-31 -31 -36 -4 -57 13 -57 47 0 50 42 68 74 32z m-6976 -97 c29 -20 28 -48 -3
-72 -22 -18 -29 -19 -67 -7 -23 6 -44 17 -46 24 -6 18 48 71 73 71 11 0 31 -7
43 -16z m-1304 -76 c21 -30 20 -45 -3 -58 -43 -22 -100 30 -71 65 18 22 57 18
74 -7z m8666 -75 c37 -47 10 -113 -45 -113 -27 0 -89 40 -93 60 -1 8 11 30 27
48 39 42 80 44 111 5z m907 -107 c-4 -9 -11 -16 -17 -16 -17 0 -24 31 -9 41
18 11 34 -5 26 -25z m-8453 -117 c14 -17 26 -37 26 -45 0 -22 -46 -64 -71 -64
-31 0 -88 30 -100 52 -9 17 -5 26 22 54 44 45 87 46 123 3z m8103 -131 c-3 -8
-6 -5 -6 6 -1 11 2 17 5 13 3 -3 4 -12 1 -19z m-9229 -32 c2 -10 -2 -22 -9
-26 -20 -13 -39 0 -39 27 0 20 4 24 22 21 13 -2 24 -11 26 -22z m8442 -47 c26
-48 -8 -92 -54 -71 -20 9 -26 19 -26 45 0 41 5 47 41 47 18 0 32 -7 39 -21z
m-8942 -113 c33 -40 19 -79 -27 -79 -54 0 -81 58 -40 86 21 16 52 12 67 -7z
m9667 -731 c0 -22 -14 -28 -34 -16 -12 8 -13 12 -1 26 16 20 35 14 35 -10z
m-9052 -6 c17 -27 0 -69 -27 -69 -45 0 -72 50 -44 78 17 17 58 11 71 -9z m470
-66 c23 -14 -18 -72 -52 -73 -20 0 -51 30 -51 50 0 28 22 41 60 34 19 -4 38
-9 43 -11z m-213 -253 c42 -42 13 -110 -48 -110 -29 0 -82 51 -82 79 0 44 94
67 130 31z m-165 -106 c0 -23 -5 -30 -23 -32 -45 -7 -72 46 -35 66 28 16 58
-2 58 -34z m411 -45 c10 -17 -13 -36 -27 -22 -12 12 -4 33 11 33 5 0 12 -5 16
-11z m8569 -189 c0 -16 -6 -26 -18 -28 -19 -4 -32 20 -23 44 9 25 41 13 41
-16z m-8761 -21 c46 -36 26 -99 -32 -99 -22 0 -38 9 -56 31 -32 38 -32 43 2
68 35 26 53 26 86 0z m8334 -238 c-4 -32 -58 -52 -83 -31 -24 20 -15 72 15 87
21 11 28 9 48 -10 15 -13 22 -30 20 -46z m414 -114 c25 -31 22 -70 -7 -102
-27 -28 -43 -29 -107 -4 -36 14 -38 26 -17 77 28 64 92 79 131 29z m-2875 -99
c-2 -24 -4 -5 -4 42 0 47 2 66 4 43 2 -24 2 -62 0 -85z m2997 20 c22 -31 20
-65 -3 -78 -32 -16 -59 -12 -76 14 -38 57 40 120 79 64z m-9215 -92 c9 -10 8
-16 -4 -26 -21 -17 -51 6 -34 26 6 8 15 14 19 14 4 0 13 -6 19 -14z m9109
-169 c3 -22 -1 -27 -18 -27 -23 0 -35 22 -26 46 10 25 41 12 44 -19z m792 -22
c10 -12 10 -18 0 -30 -25 -30 -57 -12 -45 25 8 24 28 26 45 5z m-8954 -139 c3
-19 4 -219 1 -444 -6 -451 -7 -455 -69 -511 -18 -17 -53 -37 -77 -46 -80 -27
-281 -15 -319 20 -10 9 -11 26 -2 81 17 109 13 104 81 104 105 0 99 -25 99
428 0 214 3 392 7 395 3 4 66 7 139 7 l133 0 7 -34z m1160 16 c6 -4 21 -45 32
-92 24 -99 115 -518 132 -605 18 -100 20 -105 34 -105 8 0 17 16 20 38 4 20
13 64 21 97 7 33 20 92 29 130 8 39 26 120 40 180 14 61 35 155 46 210 34 159
17 145 175 145 150 0 145 3 125 -70 -5 -19 -16 -62 -25 -95 -9 -33 -23 -85
-30 -115 -18 -75 -33 -128 -124 -465 -58 -213 -61 -222 -88 -247 -24 -22 -32
-23 -188 -23 -159 0 -164 1 -189 24 -15 14 -31 43 -36 65 -6 23 -17 64 -24 91
-8 28 -21 77 -30 110 -9 33 -21 74 -25 90 -5 17 -28 100 -51 185 -60 223 -67
246 -95 341 -38 129 -47 119 108 119 72 0 137 -4 143 -8z m1687 -11 c5 -5 7
-85 5 -180 -2 -109 1 -171 7 -171 6 0 25 9 43 20 88 54 216 74 295 46 48 -18
74 -41 98 -88 17 -34 19 -63 19 -337 l0 -301 -22 -5 c-13 -3 -70 -5 -128 -3
l-105 3 -3 247 -2 248 -24 15 c-19 13 -32 14 -72 5 -27 -6 -61 -15 -76 -21
l-28 -11 -2 -242 -3 -241 -123 -1 c-108 -1 -124 1 -132 17 -11 20 -14 937 -3
989 l6 33 121 -7 c66 -4 125 -11 129 -15z m1983 -27 c87 -18 158 -50 190 -86
28 -30 64 -98 64 -120 0 -10 4 -26 9 -36 39 -72 39 -441 0 -514 -5 -9 -12 -35
-15 -58 -4 -22 -10 -40 -15 -40 -5 0 -9 -5 -9 -12 0 -27 -77 -85 -145 -109
-67 -23 -80 -24 -327 -23 -168 1 -262 5 -270 12 -11 8 -13 107 -11 489 1 263
2 483 3 490 0 24 418 29 526 7z m2699 -196 c0 -175 0 -177 20 -163 118 86 277
99 353 31 51 -45 52 -52 52 -401 l0 -325 -25 -12 c-19 -9 -29 -8 -50 6 -14 9
-25 25 -25 36 0 18 -7 20 -58 20 -32 0 -63 5 -70 12 -9 9 -12 76 -12 239 0
258 1 256 -75 246 -25 -4 -59 -14 -75 -22 l-30 -16 0 -223 c0 -171 -3 -225
-12 -227 -7 -2 -61 -3 -119 -1 l-107 3 -5 28 c-9 42 -9 936 0 944 4 4 59 6
122 5 l116 -3 0 -177z m-1445 87 c0 -8 -4 -15 -10 -15 -5 0 -10 7 -10 15 0 8
5 15 10 15 6 0 10 -7 10 -15z m2110 -67 c24 -26 26 -75 4 -106 -20 -29 -100
-31 -135 -3 -23 18 -23 18 -5 57 10 21 25 47 34 57 22 24 76 22 102 -5z
m-9703 -10 c-3 -8 -6 -5 -6 6 -1 11 2 17 5 13 3 -3 4 -12 1 -19z m2248 -63
c58 -28 93 -66 115 -125 19 -49 27 -574 10 -595 -9 -11 -36 -15 -104 -15 -91
0 -116 8 -116 36 0 7 -5 25 -10 39 l-10 27 -46 -41 c-63 -55 -125 -74 -228
-70 -110 5 -168 38 -209 119 -15 30 -34 58 -42 63 -19 11 -19 34 0 45 10 5 19
33 25 75 11 77 39 117 104 148 34 16 63 19 203 19 l163 0 0 28 c0 16 -6 37
-14 48 -13 18 -28 19 -200 19 -118 0 -189 4 -196 11 -6 6 -13 46 -17 90 l-6
80 84 12 c125 18 161 20 306 16 118 -3 138 -6 188 -29z m-2248 -7 c-3 -7 -5
-2 -5 12 0 14 2 19 5 13 2 -7 2 -19 0 -25z m3800 22 c87 -12 182 -38 184 -51
3 -22 3 -37 -5 -84 -13 -92 -2 -85 -148 -85 -196 0 -218 -17 -218 -169 0 -89
13 -119 60 -144 31 -16 51 -18 166 -13 152 7 142 14 151 -100 l6 -71 -64 -22
c-78 -26 -247 -38 -337 -22 -196 32 -262 126 -262 371 0 267 65 358 275 389
85 12 104 12 192 1z m1413 -278 c5 -226 6 -245 24 -258 11 -8 29 -14 39 -14
26 0 99 21 115 33 9 7 12 67 12 237 0 189 2 230 15 240 22 18 223 10 235 -10
14 -21 13 -666 0 -691 -9 -16 -22 -19 -83 -19 -104 0 -116 5 -123 51 -7 43
-19 48 -55 21 -13 -10 -49 -31 -79 -47 -50 -27 -64 -30 -151 -30 -85 0 -99 3
-131 24 -76 53 -84 96 -80 449 l3 263 127 -3 127 -3 5 -243z m3435 207 c54
-26 53 -24 40 -114 -12 -77 -15 -79 -123 -71 -167 12 -203 -11 -210 -132 -8
-162 23 -188 215 -178 l112 6 7 -35 c3 -19 7 -59 8 -87 l1 -52 -60 -18 c-137
-42 -326 -32 -422 22 -43 25 -57 40 -82 92 -26 53 -32 79 -37 168 -10 176 17
301 78 357 26 23 99 59 138 67 14 2 84 3 155 2 113 -3 137 -6 180 -27z m-8648
-126 c-2 -21 -4 -4 -4 37 0 41 2 58 4 38 2 -21 2 -55 0 -75z m6680 -365 c-3
-8 -6 -5 -6 6 -1 11 2 17 5 13 3 -3 4 -12 1 -19z m-5114 -290 c28 -22 32 -63
8 -87 -25 -25 -51 -26 -97 -5 -40 19 -42 34 -12 74 24 33 70 41 101 18z m5164
-180 c-3 -7 -5 -2 -5 12 0 14 2 19 5 13 2 -7 2 -19 0 -25z m-5063 -67 c9 -14
-4 -41 -19 -41 -21 0 -36 25 -23 38 14 14 35 16 42 3z m-109 -36 c0 -22 -31
-33 -47 -17 -17 17 -1 44 24 40 15 -2 23 -10 23 -23z m-485 -42 c0 -32 4 -62
8 -68 4 -5 37 -12 75 -13 l67 -4 0 66 c0 52 4 68 16 73 29 11 34 -19 31 -172
-2 -146 -3 -150 -24 -153 -21 -3 -22 1 -25 70 -3 61 -6 73 -21 76 -12 3 -20
-4 -24 -17 -6 -23 -36 -35 -74 -29 -23 3 -24 0 -27 -55 -3 -49 -6 -58 -20 -55
-15 3 -17 22 -20 158 -3 165 -1 180 23 180 12 0 15 -13 15 -57z m4837 -45 c14
-16 19 -41 21 -120 l4 -101 -27 7 c-15 4 -42 2 -61 -4 -53 -18 -94 10 -94 63
0 38 38 73 88 82 42 7 50 17 33 44 -7 10 -22 12 -60 7 -51 -7 -64 1 -37 23 39
32 103 32 133 -1z m2500 -5 c25 -31 33 -65 21 -87 -7 -12 -24 -16 -68 -16 -32
0 -61 -4 -64 -8 -3 -5 2 -19 10 -31 12 -17 25 -22 53 -21 55 3 61 1 61 -15 0
-8 -14 -21 -32 -28 -71 -29 -148 31 -148 114 0 108 105 166 167 92z m693 19
c0 -11 -9 -27 -19 -36 -34 -31 -35 -63 -1 -117 35 -58 37 -69 10 -69 -13 0
-31 17 -51 50 -17 28 -36 49 -43 47 -6 -2 -13 -23 -16 -48 -4 -36 -9 -45 -27
-47 -23 -3 -23 -2 -23 113 0 115 0 116 23 113 17 -2 23 -11 27 -42 7 -55 27
-56 50 -3 11 25 26 48 33 50 25 11 37 7 37 -11z m295 8 c46 -18 59 -39 63
-105 4 -58 2 -65 -26 -96 -73 -82 -188 0 -162 116 9 40 34 73 65 86 27 11 30
11 60 -1z m993 -7 c-4 -22 -22 -20 -26 1 -2 10 3 16 13 16 10 0 15 -7 13 -17z
m-8035 -14 c15 -11 32 -38 38 -60 19 -60 15 -62 -143 -69 -15 0 -8 -27 13 -46
16 -14 34 -18 70 -17 55 2 67 -16 24 -35 -108 -49 -203 70 -149 184 29 61 99
82 147 43z m422 -1 c50 -44 51 -156 2 -206 -26 -26 -74 -34 -109 -18 -15 7
-17 0 -20 -46 -3 -45 -6 -53 -23 -53 -19 0 -20 7 -20 165 l0 165 37 0 c20 0
40 3 44 8 15 15 64 6 89 -15z m428 12 c10 0 9 -228 -2 -234 -5 -4 -16 -3 -25
0 -13 5 -16 23 -16 100 l0 94 -29 0 c-28 0 -29 -3 -36 -52 -11 -86 -24 -126
-48 -143 -31 -22 -47 -19 -47 10 0 15 6 25 14 25 18 0 22 13 37 117 13 92 13
93 94 87 28 -2 53 -3 58 -4z m382 -16 c23 -25 25 -35 25 -120 0 -94 -8 -116
-35 -94 -10 8 -19 8 -34 1 -46 -25 -105 -8 -115 33 -13 54 25 93 107 111 30 6
35 26 12 45 -12 10 -24 11 -53 2 -48 -15 -67 1 -33 29 35 29 96 26 126 -7z
m833 -76 c2 -85 5 -99 22 -108 24 -13 27 -76 6 -106 -19 -25 -34 -11 -38 36
l-3 35 -55 2 c-79 2 -88 -2 -92 -45 -5 -57 -32 -49 -39 12 -4 37 -1 53 13 71
11 14 22 53 28 97 14 112 12 109 89 106 l66 -3 3 -97z m377 89 c28 -21 10 -38
-33 -31 -46 7 -71 -16 -79 -73 -9 -66 44 -111 97 -83 13 7 21 6 30 -5 9 -11 6
-17 -19 -29 -38 -20 -64 -20 -101 -1 -35 18 -47 38 -50 85 -5 70 0 92 29 121
33 32 92 40 126 16z m263 -29 c3 -34 6 -37 42 -43 82 -14 118 -82 70 -133 -18
-19 -32 -22 -90 -22 l-70 0 0 113 c0 63 3 117 7 121 17 17 38 -1 41 -36z m366
33 c3 -5 8 -26 12 -47 3 -22 8 -41 11 -44 6 -6 32 26 55 69 12 22 24 31 43 31
33 0 32 -15 -5 -57 -37 -42 -37 -57 0 -113 35 -52 38 -70 11 -70 -12 0 -31 19
-51 50 -39 62 -63 63 -65 5 -3 -56 -3 -55 -25 -55 -19 0 -20 7 -20 113 0 63 3
117 7 120 9 10 21 9 27 -2z m2630 -7 c3 -9 6 -60 6 -115 l0 -99 -30 0 -30 0 0
95 c0 95 0 95 -25 95 -24 0 -25 -2 -25 -63 0 -92 -30 -145 -85 -151 -18 -3
-25 1 -25 15 0 27 11 49 25 49 15 0 25 31 25 80 0 19 5 52 11 73 l10 37 68 0
c54 0 70 -4 75 -16z m706 8 c0 -18 -26 -32 -62 -32 l-38 0 0 -95 c0 -95 0 -95
-25 -95 l-25 0 0 108 c0 60 3 112 7 115 9 10 143 9 143 -1z m-7212 -125 c3
-112 2 -117 -18 -117 -19 0 -20 6 -20 113 0 63 3 117 7 121 20 20 28 -9 31
-117z m420 24 c2 -70 7 -97 18 -105 21 -16 16 -121 -6 -121 -10 0 -17 13 -20
40 l-5 40 -54 3 c-85 5 -99 -2 -103 -46 -2 -25 -8 -37 -18 -37 -22 0 -26 96
-6 127 8 13 20 57 26 98 16 108 10 101 92 98 l73 -3 3 -94z m1910 51 l3 -43
47 3 47 3 3 43 c3 37 6 42 28 42 l24 0 0 -115 0 -115 -24 0 c-22 0 -25 5 -28
46 l-3 47 -48 1 -47 1 0 -47 c0 -45 -2 -48 -25 -48 l-25 0 0 116 c0 114 0 115
23 112 18 -2 23 -10 25 -46z m2590 -59 c-3 -14 -14 -18 -53 -18 -39 0 -50 4
-53 18 -3 14 5 17 53 17 48 0 56 -3 53 -17z m3790 -115 c18 -18 14 -63 -7 -89
-18 -22 -21 -23 -46 -9 -15 8 -34 25 -43 38 -14 21 -13 25 8 47 25 27 68 33
88 13z m-2433 -18 c3 -5 1 -10 -4 -10 -6 0 -11 5 -11 10 0 6 2 10 4 10 3 0 8
-4 11 -10z m-7763 -177 c26 -23 23 -62 -4 -72 -27 -10 -48 -4 -66 17 -16 21
-15 37 4 56 20 21 43 20 66 -1z m8969 -44 c32 -17 42 -55 23 -90 -14 -27 -19
-30 -47 -23 -46 9 -47 11 -47 54 0 29 6 43 22 54 27 19 24 19 49 5z m135 -160
c31 -35 16 -85 -31 -103 -11 -4 -16 -4 -12 0 4 4 -2 13 -13 21 -25 18 -27 71
-2 89 24 19 36 17 58 -7z m-7952 -32 c12 -9 17 -23 14 -42 -3 -26 -8 -30 -36
-33 -27 -3 -34 1 -42 23 -13 33 -13 31 6 49 19 19 35 20 58 3z m432 -356 c-10
-16 -36 -13 -36 3 0 17 21 27 34 16 4 -5 5 -13 2 -19z m8611 -83 c-3 -7 -5 -2
-5 12 0 14 2 19 5 13 2 -7 2 -19 0 -25z m-1080 -90 c-3 -8 -6 -5 -6 6 -1 11 2
17 5 13 3 -3 4 -12 1 -19z m-7542 -133 c29 -28 31 -42 9 -73 -15 -22 -54 -28
-101 -16 -53 14 -6 110 55 113 7 1 24 -10 37 -24z m295 -30 c0 -18 -15 -26
-34 -19 -12 5 -13 10 -6 25 11 20 40 16 40 -6z m53 -333 c22 -19 22 -60 0 -84
-16 -18 -74 -25 -107 -12 -34 13 -15 87 27 107 32 16 51 13 80 -11z m7532 -27
c-2 -5 -6 -23 -10 -38 -4 -22 -11 -28 -27 -25 -34 5 -46 34 -23 56 21 20 65
25 60 7z m-120 -124 c-12 -39 -65 -36 -65 4 0 12 10 29 22 37 21 14 24 14 36
-3 7 -11 11 -28 7 -38z m-6722 -337 c-6 -16 -29 -19 -38 -4 -4 6 -1 17 5 26
15 18 42 0 33 -22z m5125 -56 c18 -18 15 -46 -6 -57 -33 -18 -58 29 -30 57 7
7 15 12 18 12 3 0 11 -5 18 -12z m-430 -30 c10 -21 10 -33 2 -48 -20 -38 -80
-17 -80 28 0 56 54 70 78 20z m238 3 c8 -15 9 -34 3 -54 -15 -54 -50 -61 -98
-21 -39 32 -40 64 -3 87 37 23 83 18 98 -12z m1334 15 c0 -3 -4 -8 -10 -11 -5
-3 -10 -1 -10 4 0 6 5 11 10 11 6 0 10 -2 10 -4z m-1306 -272 c9 -8 19 -27 22
-41 6 -21 1 -31 -20 -50 -35 -30 -57 -29 -95 3 -38 32 -39 56 -5 83 32 25 76
27 98 5z m-1160 -73 c3 -5 0 -11 -8 -14 -15 -6 -26 1 -26 15 0 11 27 10 34 -1z
m-336 -59 c3 -30 1 -33 -19 -30 -31 4 -47 32 -29 53 21 25 45 14 48 -23z
m1105 -146 c10 -8 17 -27 17 -49 0 -31 -4 -38 -27 -43 -32 -8 -55 5 -67 39 -8
21 -6 31 9 47 21 23 42 25 68 6z m-870 -17 c19 -26 10 -58 -20 -72 -19 -8 -29
-7 -51 10 -31 23 -33 34 -12 63 19 26 64 26 83 -1z m-2413 -34 c0 -8 -7 -15
-15 -15 -8 0 -15 7 -15 15 0 8 7 15 15 15 8 0 15 -7 15 -15z m-350 -106 c14
-24 -2 -49 -31 -49 -20 0 -36 40 -24 59 11 18 44 12 55 -10z m2307 -55 c8 -21
-13 -42 -28 -27 -13 13 -5 43 11 43 6 0 13 -7 17 -16z m-1257 -89 c0 -14 -6
-25 -13 -25 -21 0 -27 11 -16 31 14 27 29 23 29 -6z m814 -37 c24 -34 20 -57
-11 -64 -49 -13 -82 35 -48 70 22 22 41 20 59 -6z"/>
<path d="M6225 5087 c-3 -7 -4 -140 -3 -297 l3 -285 75 -3 c90 -4 111 1 145
32 42 39 64 215 45 372 -13 108 -31 160 -61 169 -10 4 -19 11 -19 16 0 15
-180 11 -185 -4z"/>
<path d="M2062 4608 c-18 -18 -15 -83 4 -99 23 -19 80 -17 137 5 46 17 47 18
47 62 l0 44 -88 0 c-55 0 -92 -4 -100 -12z"/>
<path d="M5994 3733 c-29 -6 -58 -39 -50 -58 8 -23 34 -29 62 -15 18 10 24 22
24 47 0 18 -3 32 -7 32 -5 -1 -18 -4 -29 -6z"/>
<path d="M8460 3810 c-31 -31 -24 -40 30 -40 56 0 67 17 28 44 -29 20 -34 20
-58 -4z"/>
<path d="M9486 3817 c-23 -17 -31 -85 -14 -117 10 -18 22 -25 43 -25 38 0 58
35 51 90 -4 37 -26 65 -51 65 -6 0 -19 -6 -29 -13z"/>
<path d="M2435 3813 c-23 -5 -45 -30 -45 -50 0 -11 13 -13 53 -11 43 2 52 6
52 22 0 23 -33 44 -60 39z"/>
<path d="M2829 3806 c-21 -10 -24 -20 -27 -70 -4 -67 8 -86 52 -86 35 0 51 19
61 71 11 63 -36 110 -86 85z"/>
<path d="M3647 3714 c-38 -21 -34 -58 6 -62 37 -4 57 13 57 49 0 33 -18 37
-63 13z"/>
<path d="M4474 3813 c-6 -5 -14 -28 -17 -53 -3 -25 -9 -60 -13 -78 l-7 -33 44
3 44 3 0 80 c0 72 -2 80 -20 83 -11 1 -25 -1 -31 -5z"/>
<path d="M5210 3695 c0 -41 19 -53 56 -36 20 9 25 17 22 39 -3 23 -8 27 -40
30 -37 3 -38 3 -38 -33z"/>
<path d="M1991 3734 c-7 -46 -8 -81 -2 -87 4 -4 24 -7 42 -5 l34 3 0 80 0 80
-31 3 -31 3 -12 -77z"/>
<path d="M8232 10780 c0 -14 2 -19 5 -12 2 6 2 18 0 25 -3 6 -5 1 -5 -13z"/>
<path d="M8165 10650 c-4 -6 5 -10 20 -10 15 0 24 4 20 10 -3 6 -12 10 -20 10
-8 0 -17 -4 -20 -10z"/>
<path d="M8225 10650 c-3 -5 -1 -10 4 -10 6 0 11 5 11 10 0 6 -2 10 -4 10 -3
0 -8 -4 -11 -10z"/>
<path d="M7758 9973 c7 -3 16 -2 19 1 4 3 -2 6 -13 5 -11 0 -14 -3 -6 -6z"/>
<path d="M7835 9920 c4 -6 11 -8 16 -5 14 9 11 15 -7 15 -8 0 -12 -5 -9 -10z"/>
<path d="M7866 9911 c-2 -3 7 -11 20 -18 13 -6 26 -8 28 -4 2 3 -7 11 -20 18
-13 6 -26 8 -28 4z"/>
<path d="M7973 9843 c9 -2 17 -9 17 -14 0 -5 6 -9 14 -9 8 0 21 -6 28 -13 19
-19 58 -39 58 -30 0 11 -108 73 -123 72 -7 -1 -4 -3 6 -6z"/>
<path d="M8505 9460 c3 -5 8 -10 11 -10 2 0 4 5 4 10 0 6 -5 10 -11 10 -5 0
-7 -4 -4 -10z"/>
<path d="M5350 9067 c-3 -3 -62 -15 -132 -27 -121 -20 -263 -63 -374 -114 -49
-23 -197 -114 -238 -146 -203 -163 -347 -337 -449 -545 -70 -143 -100 -235
-139 -425 -18 -90 -18 -452 1 -545 57 -290 144 -492 306 -711 93 -126 176
-207 382 -374 7 -6 15 -10 19 -10 3 0 18 -8 32 -19 27 -18 52 -33 142 -82 86
-47 232 -98 356 -124 167 -35 451 -35 618 0 283 59 548 215 755 442 74 82 151
185 151 203 0 6 5 10 12 10 6 0 8 3 5 6 -4 4 2 19 13 33 40 57 80 147 80 181
0 23 3 30 9 22 5 -9 13 7 22 47 7 34 17 61 21 61 4 0 8 12 7 28 l-1 27 -13
-30 c-8 -16 -14 -41 -15 -55 0 -18 -3 -21 -9 -12 -6 10 -10 5 -14 -17 -7 -32
-50 -126 -94 -201 -56 -97 -140 -203 -237 -299 -87 -87 -214 -191 -232 -191
-3 0 -25 -13 -49 -30 -115 -79 -369 -169 -535 -190 -354 -43 -708 43 -1015
249 -105 71 -96 64 -210 176 -257 253 -405 547 -461 914 -25 166 -14 401 28
566 74 299 192 511 397 716 196 195 372 294 668 375 89 24 115 27 288 28 277
1 445 -34 661 -140 467 -227 789 -672 869 -1201 19 -122 29 -387 16 -411 -6
-9 -13 -52 -16 -94 -4 -43 -11 -80 -16 -84 -13 -7 -11 -64 2 -64 5 0 8 4 5 8
-3 5 1 21 9 35 13 24 23 78 24 130 1 10 6 15 11 12 6 -4 10 13 10 45 0 28 5
93 11 145 23 212 -40 527 -156 772 -217 461 -652 798 -1150 889 -81 15 -366
31 -375 21z"/>
<path d="M5518 8242 c-31 -32 -118 -163 -118 -177 0 -3 -11 -28 -24 -55 -108
-223 -136 -559 -70 -835 23 -93 80 -234 133 -327 43 -75 89 -134 98 -125 2 3
0 47 -6 99 -11 95 4 299 29 408 34 143 95 276 186 402 35 49 64 96 64 105 0
30 -39 158 -78 254 -35 86 -132 250 -165 277 -10 9 -21 3 -49 -26z"/>
<path d="M4770 7980 c-16 -29 -23 -245 -12 -350 26 -237 109 -461 232 -625 40
-54 193 -194 244 -224 66 -39 190 -83 224 -79 22 3 21 5 -18 57 -35 47 -83
137 -133 251 -71 164 -106 459 -76 651 l11 70 -33 37 c-77 89 -221 174 -357
211 -70 19 -72 19 -82 1z"/>
<path d="M6260 7919 c-73 -14 -202 -71 -276 -120 -67 -46 -175 -156 -219 -224
-75 -117 -135 -267 -160 -400 -20 -103 -30 -298 -20 -399 l7 -79 46 6 c117 15
290 106 393 207 123 121 191 233 250 413 35 110 49 191 56 351 5 113 -9 258
-25 255 -4 -1 -27 -5 -52 -10z"/>
<path d="M10055 7420 c3 -5 8 -10 11 -10 2 0 4 5 4 10 0 6 -5 10 -11 10 -5 0
-7 -4 -4 -10z"/>
<path d="M10141 7310 c0 -8 4 -22 9 -30 12 -18 12 -2 0 25 -6 13 -9 15 -9 5z"/>
<path d="M10235 7000 c3 -5 8 -10 11 -10 2 0 4 5 4 10 0 6 -5 10 -11 10 -5 0
-7 -4 -4 -10z"/>
<path d="M10331 6434 c0 -11 3 -14 6 -6 3 7 2 16 -1 19 -3 4 -6 -2 -5 -13z"/>
<path d="M10390 6143 c0 -18 2 -33 4 -33 9 0 13 39 5 51 -6 10 -9 4 -9 -18z"/>
<path d="M10412 6045 c0 -16 2 -22 5 -12 2 9 2 23 0 30 -3 6 -5 -1 -5 -18z"/>
<path d="M10493 5600 c0 -47 2 -66 4 -42 2 23 2 61 0 85 -2 23 -4 4 -4 -43z"/>
<path d="M10227 5343 c-3 -43 -6 -141 -7 -218 -1 -130 -18 -324 -40 -440 -5
-27 -17 -97 -26 -155 -30 -186 -86 -431 -133 -585 -65 -210 -100 -316 -132
-399 -22 -55 -39 -105 -39 -110 0 -18 51 83 75 148 12 34 43 117 69 186 26 69
58 154 71 190 14 36 25 72 25 80 0 14 36 155 61 240 16 55 39 151 46 193 6 37
18 48 25 25 8 -23 52 212 64 337 3 28 9 70 14 95 15 73 31 237 35 357 l4 111
-37 4 c-20 3 -44 8 -53 12 -14 6 -17 -4 -22 -71z"/>
<path d="M10493 5155 c0 -22 2 -30 4 -17 2 12 2 30 0 40 -3 9 -5 -1 -4 -23z"/>
<path d="M10392 5090 c0 -14 2 -19 5 -12 2 6 2 18 0 25 -3 6 -5 1 -5 -13z"/>
<path d="M10362 4760 c0 -14 2 -19 5 -12 2 6 2 18 0 25 -3 6 -5 1 -5 -13z"/>
<path d="M10347 4663 c-11 -20 -17 -63 -8 -63 10 0 26 58 18 66 -3 3 -7 2 -10
-3z"/>
<path d="M10400 4603 c0 -15 -1 -50 -3 -78 -3 -27 -2 -34 0 -15 2 19 9 39 14
45 12 12 12 62 -1 70 -6 4 -10 -5 -10 -22z"/>
<path d="M10323 4568 c1 -42 -4 -68 -13 -63 -7 4 -9 -2 -4 -19 4 -16 2 -26 -4
-26 -6 0 -14 -21 -18 -47 -3 -27 -10 -52 -14 -58 -4 -5 -11 -26 -15 -45 -8
-41 -33 -119 -43 -134 -4 -6 -7 -13 -7 -16 -8 -49 -18 -91 -25 -95 -4 -2 -5
-17 -3 -32 4 -22 2 -25 -7 -13 -9 12 -11 11 -9 -10 1 -14 1 -32 0 -40 -1 -13
-2 -13 -11 0 -6 10 -7 2 -3 -25 6 -36 5 -39 -10 -27 -14 12 -15 11 -4 -12 7
-14 17 -26 24 -26 6 0 13 -5 15 -12 7 -19 84 236 103 337 9 50 23 110 30 135
34 119 48 231 28 237 -6 2 -11 -2 -10 -9z"/>
<path d="M10375 4421 c-3 -5 -1 -12 5 -16 5 -3 10 1 10 9 0 18 -6 21 -15 7z"/>
<path d="M10362 4355 c0 -16 2 -22 5 -12 2 9 2 23 0 30 -3 6 -5 -1 -5 -18z"/>
<path d="M246 4345 c-38 -16 -60 -67 -57 -130 7 -146 105 -638 171 -855 38
-122 144 -420 169 -473 11 -23 48 -103 81 -177 57 -125 133 -275 201 -396 16
-28 41 -61 55 -75 14 -13 64 -82 112 -154 175 -266 348 -470 650 -768 158
-155 428 -387 472 -405 8 -3 17 -8 20 -12 3 -3 50 -36 105 -72 268 -177 285
-187 540 -317 128 -66 181 -90 300 -138 33 -13 69 -28 80 -33 11 -5 63 -23
115 -40 52 -18 104 -35 115 -40 11 -4 47 -15 80 -25 33 -10 65 -22 70 -26 6
-4 27 -10 47 -14 20 -4 54 -14 75 -21 l38 -15 -47 5 c-26 3 -56 10 -65 15 -27
14 -184 60 -218 65 -16 2 -23 1 -15 -1 8 -3 20 -9 25 -13 9 -7 195 -68 227
-74 36 -7 76 -18 105 -27 18 -6 54 -14 80 -19 27 -4 80 -15 119 -24 38 -8 97
-18 130 -21 32 -3 91 -12 129 -20 85 -17 195 -26 195 -16 0 4 48 8 108 8 59 0
89 -2 67 -5 -35 -4 -37 -6 -15 -12 14 -3 37 -3 53 1 20 6 27 4 27 -7 0 -11 21
-14 106 -14 58 0 114 5 125 11 12 6 61 13 110 16 75 4 90 2 95 -11 5 -13 22
-16 79 -16 47 0 75 4 77 12 2 6 26 12 54 13 42 2 54 7 86 38 46 47 78 48 120
6 l31 -31 96 15 c102 16 124 20 211 41 30 8 101 22 158 32 56 11 102 22 102
26 0 5 10 8 23 8 44 0 205 44 265 73 12 6 51 11 86 11 44 1 62 5 59 13 -3 6 5
17 17 23 37 20 12 32 -54 25 -63 -7 -237 -38 -316 -56 -127 -30 -428 -49 -757
-49 -283 0 -333 -2 -333 -14 0 -23 -29 -46 -59 -46 -34 0 -51 17 -51 51 0 26
-3 27 -62 33 -83 9 -183 23 -288 42 -224 39 -260 46 -324 61 -53 12 -73 13
-87 4 -37 -23 -84 -11 -90 23 -2 11 -15 23 -29 27 -14 4 -65 20 -115 34 -113
34 -163 50 -195 64 -14 5 -72 27 -130 47 -58 20 -125 45 -150 56 -25 10 -54
23 -65 27 -259 109 -511 238 -685 351 -25 16 -52 33 -60 37 -67 35 -323 214
-491 345 -187 145 -420 363 -580 544 -90 101 -92 103 -133 101 -36 -2 -41 1
-44 21 -2 13 4 32 12 41 15 16 15 19 -1 38 -92 106 -241 308 -366 495 -87 129
-114 163 -119 148 -16 -43 -82 -30 -76 14 2 17 10 21 40 20 l37 -1 -16 31 c-9
17 -24 42 -33 56 -10 14 -40 68 -68 120 -69 132 -113 214 -118 219 -2 2 -11
-6 -21 -17 -10 -11 -25 -22 -33 -23 -43 -5 -78 3 -98 21 l-22 21 20 39 c16 30
29 42 60 51 22 7 40 17 40 23 0 6 -10 31 -21 56 -105 231 -238 623 -295 870
-15 63 -29 118 -33 121 -3 4 -19 1 -35 -6z m1532 -2831 c40 -27 22 -74 -28
-74 -47 0 -65 37 -33 72 20 22 32 23 61 2z m782 -659 c20 -25 8 -50 -25 -50
-24 0 -31 5 -33 24 -6 37 34 55 58 26z m338 -107 c20 -20 14 -66 -11 -83 -18
-11 -31 -12 -60 -4 -43 12 -48 33 -16 73 22 28 66 35 87 14z m410 -190 c-3
-25 -17 -32 -37 -19 -19 12 -6 41 19 41 16 0 21 -5 18 -22z m242 -123 c0 -34
-56 -49 -79 -21 -16 19 -4 43 27 54 33 11 52 -1 52 -33z m-23 -161 c-3 -3 -12
-4 -19 -1 -8 3 -5 6 6 6 11 1 17 -2 13 -5z m811 -96 c-3 -7 -11 -13 -18 -13
-7 0 -15 6 -17 13 -3 7 4 12 17 12 13 0 20 -5 18 -12z m-513 -38 c14 0 16 -3
8 -11 -9 -9 -19 -9 -40 -1 -15 6 -37 13 -48 16 -11 3 -2 3 20 1 22 -3 49 -5
60 -5z m113 -26 c32 -9 28 -28 -5 -20 -16 4 -44 11 -63 15 l-35 9 40 1 c22 0
50 -2 63 -5z m155 -31 c-18 -2 -48 -2 -65 0 -18 2 -4 4 32 4 36 0 50 -2 33 -4z
m1534 1 c-3 -3 -12 -4 -19 -1 -8 3 -5 6 6 6 11 1 17 -2 13 -5z m-57 -20 c0 -2
-12 -4 -26 -4 -14 0 -23 4 -20 9 6 8 46 4 46 -5z m-874 -42 c-11 -10 -86 -11
-86 -1 0 5 21 9 47 9 25 0 43 -3 39 -8z m64 -2 c0 -5 -7 -10 -15 -10 -8 0 -15
5 -15 10 0 6 7 10 15 10 8 0 15 -4 15 -10z"/>
<path d="M10350 4294 c0 -14 -4 -23 -10 -19 -5 3 -10 -3 -10 -14 0 -35 17 -23
28 19 5 23 6 40 1 40 -5 0 -9 -12 -9 -26z"/>
<path d="M10171 4244 c0 -11 3 -14 6 -6 3 7 2 16 -1 19 -3 4 -6 -2 -5 -13z"/>
<path d="M10341 4214 c0 -11 3 -14 6 -6 3 7 2 16 -1 19 -3 4 -6 -2 -5 -13z"/>
<path d="M10163 4180 c1 -16 -3 -24 -10 -22 -15 2 -17 -27 -3 -48 8 -12 10 -9
10 12 0 14 5 28 11 30 7 2 7 11 0 28 l-11 25 3 -25z"/>
<path d="M10320 4165 c0 -14 -4 -25 -10 -25 -5 0 -10 -10 -10 -22 0 -23 -27
-122 -40 -149 -5 -9 -11 -37 -15 -63 -4 -25 -10 -46 -14 -46 -4 0 -15 -28 -24
-62 -10 -35 -29 -90 -42 -123 -29 -75 -55 -160 -54 -177 1 -23 59 104 79 172
10 36 28 89 39 118 11 29 20 56 22 60 1 4 3 12 4 17 2 6 9 35 16 65 6 30 15
60 19 65 12 17 50 147 50 172 0 13 -4 23 -10 23 -5 0 -10 -11 -10 -25z"/>
<path d="M10119 4062 c-7 -20 -13 -43 -13 -49 1 -7 -1 -13 -5 -13 -8 0 -28
-48 -34 -85 -9 -51 8 -61 23 -13 7 24 19 57 26 75 8 17 14 38 14 46 0 9 5 19
10 22 12 7 13 42 2 49 -5 3 -15 -12 -23 -32z"/>
<path d="M6856 3864 c-4 -10 -1 -14 6 -12 15 5 23 28 10 28 -5 0 -13 -7 -16
-16z"/>
<path d="M10077 3790 c-9 -22 -17 -45 -17 -50 0 -6 -5 -18 -11 -28 -8 -12 -7
-25 1 -47 l12 -30 19 50 c10 28 19 59 19 71 0 11 5 25 10 30 7 7 6 16 -3 27
-11 16 -14 13 -30 -23z"/>
<path d="M10041 3793 c-1 -6 -4 -20 -7 -30 -5 -17 -5 -17 6 0 6 10 9 23 6 30
-3 9 -5 9 -5 0z"/>
<path d="M10141 3764 c0 -11 3 -14 6 -6 3 7 2 16 -1 19 -3 4 -6 -2 -5 -13z"/>
<path d="M10011 3723 c-1 -6 -4 -20 -7 -30 -5 -17 -5 -17 6 0 6 10 9 23 6 30
-3 9 -5 9 -5 0z"/>
<path d="M9980 3654 c0 -8 5 -12 10 -9 6 3 10 10 10 16 0 5 -4 9 -10 9 -5 0
-10 -7 -10 -16z"/>
<path d="M10020 3624 c-6 -14 -10 -30 -10 -35 0 -5 -4 -9 -9 -9 -5 0 -12 -18
-16 -40 -4 -22 -10 -42 -15 -45 -4 -3 -11 -22 -15 -42 -4 -21 -11 -43 -17 -50
-5 -7 -7 -17 -3 -23 3 -5 1 -10 -4 -10 -6 0 -11 -5 -11 -11 0 -40 80 100 96
168 4 15 10 33 14 38 5 6 11 27 15 48 8 43 -10 52 -25 11z"/>
<path d="M9957 3588 c-8 -24 -18 -52 -23 -63 -5 -15 -2 -14 14 6 19 23 41 99
29 99 -3 0 -12 -19 -20 -42z"/>
<path d="M10061 3534 c0 -11 3 -14 6 -6 3 7 2 16 -1 19 -3 4 -6 -2 -5 -13z"/>
<path d="M10091 3468 c0 -9 -4 -25 -7 -35 -5 -17 -5 -17 6 0 6 10 9 25 7 35
-4 15 -5 15 -6 0z"/>
<path d="M9888 3425 c-10 -25 -13 -45 -9 -45 9 0 36 78 30 85 -3 2 -12 -16
-21 -40z"/>
<path d="M10065 3400 c3 -5 8 -10 11 -10 2 0 4 5 4 10 0 6 -5 10 -11 10 -5 0
-7 -4 -4 -10z"/>
<path d="M9813 3353 c-7 -15 -11 -28 -9 -31 6 -6 28 38 24 48 -2 5 -9 -3 -15
-17z"/>
<path d="M9863 3358 c-6 -7 -13 -24 -17 -38 l-6 -25 12 25 c7 14 17 28 22 32
6 4 8 10 5 13 -4 3 -11 0 -16 -7z"/>
<path d="M10011 3264 c0 -11 3 -14 6 -6 3 7 2 16 -1 19 -3 4 -6 -2 -5 -13z"/>
<path d="M9130 2790 c0 -5 5 -10 10 -10 6 0 10 5 10 10 0 6 -4 10 -10 10 -5 0
-10 -4 -10 -10z"/>
<path d="M9140 2629 c0 -5 5 -7 10 -4 6 3 10 8 10 11 0 2 -4 4 -10 4 -5 0 -10
-5 -10 -11z"/>
<path d="M9730 2495 c0 -5 4 -16 9 -23 6 -11 10 -10 15 4 3 9 4 19 1 22 -3 3
-5 -1 -5 -9 0 -11 -2 -11 -10 1 -5 8 -10 11 -10 5z"/>
<path d="M9192 2469 c-7 -10 -8 -19 -3 -19 5 0 12 7 15 16 3 8 10 13 15 9 5
-3 12 -2 15 3 2 4 -3 8 -13 9 -9 1 -23 -7 -29 -18z"/>
<path d="M9700 2475 c0 -18 19 -40 26 -32 4 4 0 15 -9 24 -9 10 -17 13 -17 8z"/>
<path d="M9274 2402 c-16 -11 -24 -41 -14 -47 6 -4 10 0 10 8 0 8 7 17 15 21
8 3 15 10 15 16 0 12 -10 13 -26 2z"/>
<path d="M10415 1830 c3 -5 8 -10 11 -10 2 0 4 5 4 10 0 6 -5 10 -11 10 -5 0
-7 -4 -4 -10z"/>
<path d="M9067 1682 c-10 -10 -17 -22 -17 -27 0 -5 9 1 21 14 12 12 19 24 17
27 -3 2 -12 -4 -21 -14z"/>
<path d="M9066 1441 c-4 -7 -5 -15 -2 -18 9 -9 19 4 14 18 -4 11 -6 11 -12 0z"/>
<path d="M8328 1423 c7 -3 16 -2 19 1 4 3 -2 6 -13 5 -11 0 -14 -3 -6 -6z"/>
<path d="M8248 1367 c-65 -53 -419 -287 -434 -287 -3 0 -18 -8 -32 -18 -59
-41 -396 -217 -502 -261 -30 -13 -77 -34 -105 -46 -27 -12 -68 -29 -90 -36
-22 -8 -42 -17 -45 -20 -3 -3 -23 -11 -45 -16 -22 -6 -80 -25 -130 -43 -85
-30 -264 -79 -365 -100 -25 -5 -76 -17 -115 -25 -78 -18 -122 -26 -279 -49
-60 -9 -115 -21 -123 -27 -32 -27 -752 -30 -1038 -5 -99 9 -183 16 -187 16 -5
0 -8 -13 -8 -28 0 -27 3 -29 64 -40 35 -7 79 -12 99 -12 20 0 47 -4 61 -10 14
-5 114 -12 223 -15 109 -3 227 -7 263 -10 36 -2 89 1 119 5 29 5 117 12 195
16 211 10 254 13 331 24 39 6 104 15 145 20 41 4 91 13 110 19 19 6 51 13 70
16 19 3 36 10 38 15 2 5 21 7 42 4 21 -2 41 0 45 6 3 5 17 10 29 10 13 0 29 7
36 15 8 10 21 13 38 8 17 -4 23 -2 18 6 -5 7 4 11 28 11 19 0 38 5 41 11 4 6
14 8 22 5 9 -4 21 -2 27 3 6 5 20 11 31 14 11 2 -2 2 -30 -1 -27 -2 -54 -8
-60 -12 -5 -5 -36 -11 -68 -15 -31 -4 -60 -11 -63 -16 -3 -5 -19 -9 -35 -9
-47 0 -25 17 31 25 27 4 52 11 56 16 3 5 16 9 30 9 13 0 32 4 42 9 9 5 64 23
122 41 58 18 114 36 125 41 11 4 90 33 175 64 85 32 191 74 235 95 44 21 96
41 115 45 19 4 37 11 40 15 3 4 70 41 150 81 80 41 154 82 165 92 11 10 36 28
55 40 19 11 37 24 40 28 3 3 15 9 27 13 25 8 146 88 181 119 12 12 20 27 18
33 -3 7 10 26 29 42 18 17 31 34 27 38 -4 5 1 2 11 -5 18 -14 32 -9 32 12 1 7
6 11 12 10 7 -2 10 6 8 17 -3 18 -1 19 18 8 19 -10 20 -9 9 4 -10 13 -10 17 0
21 8 4 7 6 -4 6 -10 1 -41 -18 -70 -42z m-1733 -887 c-28 -12 -45 -12 -45 0 0
6 15 10 33 9 27 0 29 -2 12 -9z"/>
<path d="M10392 1330 c0 -19 2 -27 5 -17 2 9 2 25 0 35 -3 9 -5 1 -5 -18z"/>
<path d="M8790 1120 c-9 -6 -10 -10 -3 -10 6 0 15 5 18 10 8 12 4 12 -15 0z"/>
<path d="M7630 875 c-14 -8 -33 -14 -42 -15 -10 0 -18 -4 -18 -9 0 -5 -12 -12
-27 -16 -15 -3 -39 -15 -54 -26 -15 -10 -32 -19 -39 -19 -7 0 -24 -6 -38 -14
-52 -28 -137 -65 -164 -72 -16 -3 -28 -10 -28 -15 0 -5 -9 -9 -19 -9 -11 0
-22 -4 -26 -9 -6 -11 13 -6 125 34 41 14 100 39 131 55 31 17 64 30 73 30 10
0 31 8 49 17 18 9 35 16 38 15 4 0 24 14 45 33 40 36 38 45 -6 20z"/>
<path d="M3128 863 c7 -3 16 -2 19 1 4 3 -2 6 -13 5 -11 0 -14 -3 -6 -6z"/>
<path d="M2330 700 c8 -5 20 -10 25 -10 6 0 3 5 -5 10 -8 5 -19 10 -25 10 -5
0 -3 -5 5 -10z"/>
<path d="M7056 621 c-4 -5 3 -7 14 -4 23 6 26 13 6 13 -8 0 -17 -4 -20 -9z"/>
<path d="M6975 600 l-30 -8 32 -1 c17 0 35 4 38 9 7 11 3 11 -40 0z"/>
<path d="M2510 596 c0 -2 7 -7 16 -10 8 -3 12 -2 9 4 -6 10 -25 14 -25 6z"/>
<path d="M6875 570 l-30 -8 27 -1 c15 0 30 4 33 9 3 6 5 9 3 9 -2 -1 -16 -5
-33 -9z"/>
<path d="M2568 563 c7 -3 16 -2 19 1 4 3 -2 6 -13 5 -11 0 -14 -3 -6 -6z"/>
<path d="M2668 513 c12 -2 22 -9 22 -14 0 -5 8 -9 18 -9 15 1 15 2 -2 15 -11
8 -29 14 -40 14 -19 -2 -19 -2 2 -6z"/>
<path d="M6674 365 c-26 -19 1 -20 36 0 23 13 23 14 4 15 -11 0 -29 -7 -40
-15z"/>
<path d="M3108 323 c7 -3 16 -2 19 1 4 3 -2 6 -13 5 -11 0 -14 -3 -6 -6z"/>
<path d="M6658 323 c7 -3 16 -2 19 1 4 3 -2 6 -13 5 -11 0 -14 -3 -6 -6z"/>
<path d="M3155 300 c11 -5 27 -9 35 -9 9 0 8 4 -5 9 -11 5 -27 9 -35 9 -9 0
-8 -4 5 -9z"/>
<path d="M6128 143 c6 -2 18 -2 25 0 6 3 1 5 -13 5 -14 0 -19 -2 -12 -5z"/>
<path d="M6025 125 c-39 -13 -39 -13 -9 -14 16 -1 34 3 40 8 5 5 20 11 34 14
l25 4 -25 1 c-14 0 -43 -6 -65 -13z"/>
<path d="M5948 103 c6 -2 18 -2 25 0 6 3 1 5 -13 5 -14 0 -19 -2 -12 -5z"/>
<path d="M5878 83 c6 -2 18 -2 25 0 6 3 1 5 -13 5 -14 0 -19 -2 -12 -5z"/>
<path d="M4458 23 c7 -3 16 -2 19 1 4 3 -2 6 -13 5 -11 0 -14 -3 -6 -6z"/>
</g>
</svg>
