<?xml version="1.0" encoding="UTF-8"?>
<svg xmlns="http://www.w3.org/2000/svg" version="1.1" viewBox="0 0 800 800">
  <!-- Generator: Adobe Illustrator 28.7.1, SVG Export Plug-In . SVG Version: 1.2.0 Build 142)  -->
  <g>
    <g id="Layer_1">
      <g>
        <path d="M540.1,230.6c-11.1,2-22.2,3.7-33.4,5.2-61.3,8.2-123.9,9.1-185.5,3.5-14.4-1.3-28.8-3.1-43.1-5.3-11.9-1.8-25.9-6.9-37.9-5.5-7.7.9-10.2,9.6-11.5,16-1.4,7.1-4.1,18.8,1.3,24.7,2.9,3.1,7.4,3.9,11.7,4.5,42.9,6.1,85.9,10.9,129.3,12.4,60.6,2,121.4-2.5,181.4-11.4,5.3-.8,10.7-2.4,14.3-5.8h0c2.5-2.4,4-5.6,4.2-9,.6-7.9,0-17.2-4-24.2-6-10.2-16.9-6.9-26.8-5.1Z"/>
        <path d="M400,26.8C193.5,26.8,26.8,193.5,26.8,400s166.7,373.2,373.2,373.2,373.2-166.7,373.2-373.2S606.5,26.8,400,26.8ZM593.9,293.6c-7.1,7.6-16.7,10.9-26.7,12.9-5.2,1-9.1,5.3-9.7,10.6l-5.3,51.8c-8.5,82.7-17,165.4-25.4,248.1-3.7,36.2-30,59.6-64.9,66-23.6,4.3-47.8,3.4-71.8,3-18.7-.3-37.6-.9-56-3.9-31.6-5.1-57.1-23-60.7-56.4l-23.6-226.2-5.7-54.2c-1-9.4,8.5-16.5,16.8-16.9,9.7-.4,15.9,8.1,16.8,16.8l8,76.8,18.1,174.1c1.6,15.4,3.2,33.1,15,44.5,13.4,12.9,34.7,14.5,52,14.4,16.3,0,32.5.6,48.8.5,14.7-.1,29.3-1.8,43.6-5.1,15.6-3.6,26.3-13.3,29.3-29.1,1.9-10.1,2.1-20.5,3.1-30.7l25.3-245.9,1.8-17.3c0-.9,0-1.7,0-2.6-.7-6.6-6.7-11.3-13.3-10.6-93.8,10.4-188.7,7.3-281.6-9.3-18.8-3.4-31.9-18.6-34-37.3-1-8.7,1.6-17.8,3.4-26.2,1.7-8.4,2.8-17,6.6-24.8,3.7-7.4,9.6-13.4,16.8-17.4,8.8-4.8,18.1-5.6,27.9-4,8,1.3,16.1,2.8,24.2,4,3.1.4,6.9,1.1,10.4,1.5,38.7,5,77.7,7.5,116.7,7.5,39.4.1,78.7-2.3,117.7-7.3.9-.1,1.9-.2,2.8-.4h0c.1,0,.3,0,.4,0,3.2-.7,5.2-3.8,4.5-7l-7.9-36.8c-.8-3.6-1.4-7.3-2.8-10.7-4.3-10.7-16.8-11.3-26.6-13.5-6.6-1.4-13.2-2.6-19.8-3.6l-5.7-.8c-16.6-1.9-33.3-3.1-50.1-3.6-28.4-.9-56.8,0-85.1,3-3.3.4-6.5,1-9.8,1.2h0c-7,1-13.9,2.2-20.8,3.6h-.1c-2.8.7-2.8,4.6,0,5.3,6,1.2,11.9,2.3,18,3.2,1.9.3,4.3.6,6.4.9,9.6,1.1,19.1,2,28.7,2.7,29.2,1.9,58.6,1.8,87.8-.1,10.5-.9,22.7-1.8,34.3-3.6,9.4-1.4,17.6,2.2,20.7,11.7,2.6,8-3,19.4-11.8,20.7-7.4,1.1-14.8,2.1-22.2,3-30.1,3.2-60.4,4.2-90.6,2.9-27.3-1-54.9-3.3-81.6-9.2-9.6-2-18.9-5.1-27.9-9.1-6.9-3.1-13.4-7.8-17.2-14.4-5.4-9.3-3-21,4.4-28.4,6-6.1,14.2-9.6,22-12.4,21.6-7.8,45.6-10.4,68.3-12.4,30.5-2.7,61.2-3.2,91.9-1.5,25.5,1.4,51.6,3.8,76.4,10.3,5.3,1.3,10.5,2.9,15.5,4.8,9.9,3.8,19.9,9.6,24.7,19.6,3.7,7.4,4.8,16.4,6.2,24.5,1.7,9.4,3.2,18.7,4.8,28.1.9,5.1,2,10.7,5.7,14.2,3.7,3.6,9.3,4.3,14.2,6,15.2,5.4,21.9,19.4,24.9,34.2l3.3,16.5h0c4,15.9,1.7,31.7-9.6,43.8ZM297.7,379.9c12.7,3.5,25.8,5.4,39,5.4,31.5,0,55.8-10.4,77.2-19.6,19.1-8.2,35.6-15.2,56.1-15.2,11.2.1,22.3,2.1,32.8,5.9l-23.3,247c-1.6,19.4-17.8,34.3-37.2,34.3,0,0-33.2,1.6-44.3,1.6s-41.2-1.6-41.2-1.6c-19.4,0-35.6-14.9-37.2-34.3l-21.8-223.5Z"/>
      </g>
    </g>
  </g>
</svg>