<?xml version="1.0" encoding="UTF-8"?>
<svg xmlns="http://www.w3.org/2000/svg" version="1.1" viewBox="0 0 67 67">
  <defs>
    <style>
      .cls-1 {
        fill-rule: evenodd;
      }
    </style>
  </defs>
  <!-- Generator: Adobe Illustrator 28.7.1, SVG Export Plug-In . SVG Version: 1.2.0 Build 142)  -->
  <g>
    <g id="Layer_1">
      <text/>
      <g>
        <path class="cls-1" d="M27.7,36.4c0,2.1,1.1,3.6,3.2,3.6s5.3-3.6,5.9-6.5l1-5.4c-.5-.1-1.3-.3-2.4-.3-4.2,0-7.6,4-7.6,8.6Z"/>
        <path class="cls-1" d="M33,4C16.4,4,3,17.4,3,34s13.4,30,30,30,30-13.4,30-30S49.6,4,33,4ZM40.2,42.6c-1.9,0-3.7-1.3-3.6-4.2h-.2c-1.7,2.8-3.9,4.2-6.8,4.2s-5.2-2.3-5.2-6c0-6,4.7-11.4,11.4-11.4s3.9.4,5.1,1l-1.6,8.7c-.7,3.6-.1,5.3,1.4,5.4,2.4,0,5.2-3.2,5.2-8.8s-4.2-11.9-11.6-11.9-14.4,6.2-14.4,15.9,5.2,13,12.3,13,5.3-.6,7.2-1.7l.8,2.1c-2.6,1.4-5.3,1.9-8.5,1.9-7.9,0-14.5-5.8-14.5-15s6.9-18.4,17.5-18.4,14,5.9,14,13.9-4,11.4-8.5,11.4Z"/>
      </g>
    </g>
  </g>
</svg>